It is love at first sight between professor's daughter Franziska and Michael, a roving reporter. The story begins in 1932 and ends during the second world war. The couple's love goes from one farewell to the next. Michael is always going somewhere to film world envents for his agency: accidents, natural desasters, and wars. Franziska stays at home in a picturesque little town, entirely alone at first, then alone with their two children. She gradually loses hope and becomes melancholic, but she cannot leave the great love of her life. A melodrama with many comic moments, this film is also distinguished by the brilliant acting of Marianne Hoppe and Hans Söhnker.

   General
      Complete name : Franziska.avi
      Format : AVI
      Format/Info : Audio Video Interleave
      File size : 1.13 GiB
      Duration : 1h 33mn
      Overall bit rate : 1 727 Kbps
      Writing application : FairUse Wizard - http://fairusewizard.com
      Writing library : The best and REALLY easy backup tool
   Video #0
      ID : 0
      Format : MPEG-4 Visual
      Format profile : AdvancedSimple@L5
      Format settings, BVOP : Yes
      Format settings, QPel : No
      Format settings, GMC : No warppoints
      Format settings, Matrix : Default (MPEG)
      Muxing mode : Packed bitstream
      Codec ID : XVID
      Codec ID/Hint : XviD
      Duration : 1h 33mn
      Bit rate : 1 525 Kbps
      Width : 672 pixels
      Height : 480 pixels
      Display aspect ratio : 1.400
      Frame rate : 25.000 fps
      Resolution : 24 bits
      Colorimetry : 4:2:0
      Scan type : Progressive
      Bits/(Pixel*Frame) : 0.189
      Stream size : 1 020 MiB (88%)
      Writing library : XviD 1.2.0.dev47 (UTC 2006-11-01)
   Audio #1
      ID : 1
      Format : AC-3
      Format/Info : Audio Coding 3
      Codec ID : 2000
      Duration : 1h 33mn
      Bit rate mode : Constant
      Bit rate : 192 Kbps
      Channel(s) : 2 channels
      Channel positions : L R
      Sampling rate : 48.0 KHz
      Stream size : 128 MiB (11%)
      Alignment : Split accross interleaves
      Interleave, duration : 40 ms (1.00 video frame)
      Interleave, preload duration : 500 ms
 
http://www.imdb.com/title/tt0033359/

German audio; English and Portuguese subtitles (srt) and English, German, Spanish, French, Italian, Portuguese, Russian, Arab, Japanese subpack (idx/sub)

My rip of the Goethe Institut DVD

Helmuth Käutner - Auf Wiedersehn, Franziska! (1941) 